<?xml version="1.0" encoding="utf-8"?>

<!DOCTYPE svg PUBLIC "-//W3C//DTD SVG 1.1//EN" "http://www.w3.org/Graphics/SVG/1.1/DTD/svg11.dtd">
<!-- Uploaded to: SVG Repo, www.svgrepo.com, Generator: SVG Repo Mixer Tools -->
<svg height="800px" width="800px" version="1.1" id="_x32_" xmlns="http://www.w3.org/2000/svg" xmlns:xlink="http://www.w3.org/1999/xlink" 
	 viewBox="0 0 512 512"  xml:space="preserve">
<style type="text/css">
	.st0{fill:#000000;}
</style>
<g>
	<path class="st0" d="M474.658,121.941L304.895,60.196v18.563l163.783,59.66c1.884,0.671,3.493,1.616,4.979,2.764
		c0.734,0.536,1.475,1.207,2.082,1.877c4.503,4.783,6.186,11.911,3.832,18.571L362.74,482.528
		c-3.426,9.408-13.859,14.257-23.271,10.824L132.982,418.22c-3.095-1.14-5.717-3.024-7.669-5.445h-19.774
		c3.364,9.818,10.961,18.027,21.453,21.863l206.488,75.19c13.118,4.775,27.108,1.416,36.59-7.531
		c1.349-1.214,2.559-2.556,3.699-4.038c2.22-2.89,4.108-6.123,5.382-9.75l116.831-320.898
		C502.708,149.115,493.155,128.668,474.658,121.941z"/>
	<path class="st0" d="M413.483,209.766l0.69-0.455c4.898-6.13,23.565-18.831,29.483-20.842l0.342-0.275l-0.086-0.417
		c-3.236-5.356-9.386-27.07-9.188-34.921l-0.235-0.797l-0.703,0.454c-4.902,6.138-23.57,18.823-29.48,20.85l-0.346,0.26l0.089,0.425
		c3.24,5.356,9.382,27.077,9.184,34.928L413.483,209.766z"/>
	<path class="st0" d="M304.88,377.116v-53.41c0.004,0.008,0.011,0.015,0.011,0.015l0.004-2.555c1.009-0.745,1.952-1.415,2.961-2.153
		c0.67-0.469,1.348-0.939,2.019-1.416c14.462-10.22,29.532-19.3,36.657-21.721l0.808-0.603l-0.205-1.013
		c-2.618-4.298-6.049-13.178-9.345-23.74c-0.607-1.877-1.211-3.829-1.822-5.855c-3.158-10.757-6.116-22.526-8-32.687
		c-1.282-6.786-2.09-12.909-2.153-17.349v-2.093c-0.067-0.67-0.134-1.14-0.54-1.274c-0.465-0.134-0.808,0.134-1.274,0.67
		c-0.071,0.142-0.205,0.269-0.343,0.41c-0.197,0.194-0.398,0.462-0.603,0.738c-2.957,3.434-7.598,7.8-13.181,12.306
		c-1.616,1.348-3.225,2.696-4.98,4.038v87.772c0,0-0.011-0.008-0.015-0.014v-98.127c0.004,0.008,0.011,0.008,0.015,0.014v-7.33
		c0,0-0.011,0.008-0.015,0.008V35.636C304.869,15.948,288.932,0.008,269.24,0H49.504c-19.691,0.008-35.625,15.948-35.64,35.636
		v341.48c0.014,19.688,15.948,35.629,35.64,35.636H269.24C288.932,412.745,304.869,396.804,304.88,377.116z M31.351,377.116V35.636
		c0.026-10.019,8.13-18.131,18.153-18.153H269.24c10.026,0.022,18.131,8.134,18.157,18.153v341.48
		c-0.026,10.018-8.13,18.13-18.157,18.146H49.504C39.481,395.247,31.377,387.135,31.351,377.116z"/>
	<path class="st0" d="M206.21,153.175c-17.39-13.825-41.692-4.142-46.843,15.189c-5.125-19.33-29.427-29.014-46.821-15.189
		c-16.656,13.252-15.315,39.644,0.998,60.792c15.069,19.554,38.623,38.392,44.97,51.466l0.853,0.648l0.879-0.648
		c6.332-13.074,29.886-31.912,44.966-51.466C221.518,192.819,222.855,166.427,206.21,153.175z"/>
	<path class="st0" d="M100.225,48.635c-7.896-6.265-18.902-1.877-21.23,6.882c-2.324-8.76-13.334-13.147-21.216-6.882
		c-7.542,6.004-6.95,17.952,0.447,27.539C65.058,85.046,75.74,93.575,78.6,99.49l0.395,0.298l0.394-0.298
		c2.876-5.915,13.543-14.444,20.377-23.316C107.159,66.587,107.766,54.639,100.225,48.635z"/>
	<path class="st0" d="M239.749,334.194c-2.324-8.752-13.334-13.14-21.215-6.882c-7.542,6.012-6.95,17.96,0.447,27.546
		c6.831,8.872,17.498,17.394,20.373,23.315l0.395,0.298l0.395-0.298c2.875-5.922,13.542-14.443,20.373-23.315
		c7.397-9.587,8-21.535,0.462-27.546C253.083,321.055,242.073,325.442,239.749,334.194z"/>
</g>
</svg>